<svg id="svg" version="1.1" width="410" height="149" xmlns="http://www.w3.org/2000/svg" xmlns:xlink="http://www.w3.org/1999/xlink" style="display: block;"><g id="svgg"><path id="path0" d="M95.400 1.950 C 86.699 5.086,67.926 18.176,51.800 32.351 C 23.081 57.596,-3.657 94.259,1.394 101.470 C 3.634 104.669,29.722 102.723,51.000 97.770 C 57.165 96.336,56.824 97.087,49.732 100.565 C 46.857 101.975,43.086 104.016,41.352 105.100 C 39.619 106.184,35.916 108.345,33.125 109.903 C 17.127 118.833,8.018 128.242,5.975 137.948 C 4.359 145.629,8.847 148.110,24.400 148.132 C 33.954 148.146,41.766 146.916,51.200 143.913 C 60.163 141.060,79.237 128.857,84.010 122.923 C 85.725 120.791,85.251 120.872,96.799 120.748 C 105.414 120.656,106.612 120.719,106.718 121.268 C 106.909 122.261,103.627 125.027,93.145 132.706 C 79.424 142.759,80.801 151.470,95.600 148.231 C 103.615 146.477,110.701 143.543,121.800 137.382 C 127.270 134.346,127.415 134.579,123.395 139.954 C 118.404 146.630,118.436 149.138,123.503 148.215 C 128.595 147.287,149.338 137.153,159.704 130.528 C 163.985 127.792,164.050 128.158,160.195 133.273 C 154.682 140.587,155.444 146.509,162.138 148.383 C 170.440 150.707,186.366 143.162,199.370 130.743 C 203.946 126.374,204.951 124.988,203.979 124.387 C 203.117 123.854,202.344 124.402,197.724 128.824 C 184.923 141.076,170.222 148.468,162.774 146.399 C 155.727 144.442,156.879 139.526,166.919 128.713 C 168.854 126.629,170.715 124.529,171.053 124.046 C 171.391 123.564,172.653 122.612,173.859 121.932 C 176.606 120.382,177.492 119.159,176.865 117.784 C 176.188 116.297,174.826 116.527,172.981 118.438 C 172.112 119.339,170.140 120.894,168.600 121.893 C 167.060 122.892,163.100 125.465,159.800 127.610 C 150.727 133.509,143.324 137.612,136.000 140.802 C 134.350 141.521,131.839 142.639,130.420 143.286 C 124.741 145.879,122.400 146.515,122.400 145.467 C 122.400 144.310,133.482 130.899,138.128 126.436 C 143.229 121.533,144.389 119.650,142.823 118.812 C 141.351 118.024,139.046 119.875,135.106 125.008 C 130.911 130.472,115.215 139.792,103.552 143.743 C 82.243 150.963,79.590 144.979,98.200 131.672 C 113.683 120.602,115.607 116.372,104.425 117.988 C 99.591 118.687,86.931 118.589,86.189 117.847 C 85.297 116.955,83.515 117.037,82.254 118.029 C 81.195 118.862,80.829 120.524,81.600 121.000 C 84.205 122.610,61.907 137.799,51.774 141.317 C 38.373 145.968,18.296 147.184,10.314 143.826 C 7.768 142.755,7.272 139.980,8.865 135.715 C 12.219 126.736,20.478 119.231,36.428 110.668 C 38.314 109.656,40.924 108.180,42.228 107.388 C 44.963 105.728,55.415 100.492,60.400 98.285 C 69.111 94.428,70.622 90.776,62.524 93.150 C 59.392 94.069,57.073 94.581,45.200 96.977 C 40.470 97.931,35.070 98.911,33.200 99.153 C 15.047 101.507,3.663 101.688,3.011 99.634 C 2.405 97.727,7.602 86.228,11.856 80.061 C 31.156 52.082,62.133 22.891,88.800 7.553 C 96.487 3.132,100.425 1.992,97.591 5.009 C 96.672 5.988,96.739 7.200,97.713 7.200 C 98.841 7.200,101.200 3.999,101.200 2.469 C 101.200 1.011,98.641 0.781,95.400 1.950 M320.732 14.212 C 319.034 15.134,315.639 21.483,306.645 40.555 L 304.403 45.311 302.251 45.058 C 291.519 43.796,272.719 31.197,279.200 29.609 C 280.785 29.220,280.539 27.832,278.856 27.671 C 275.811 27.380,274.594 30.829,276.567 34.165 C 279.404 38.965,292.696 46.469,300.700 47.790 C 302.881 48.150,302.867 48.359,300.314 53.334 C 293.582 66.453,280.483 88.026,273.678 97.200 C 258.155 118.129,241.601 134.602,226.617 144.031 C 223.721 145.853,223.000 146.496,223.000 147.254 C 223.000 148.908,224.651 148.581,233.307 145.207 C 241.353 142.072,247.335 139.893,256.000 136.941 C 258.310 136.153,263.350 134.247,267.200 132.703 C 280.559 127.347,292.022 124.822,294.000 126.800 C 295.720 128.520,295.198 129.707,289.771 136.400 C 282.422 145.465,281.678 147.034,284.087 148.382 C 285.646 149.254,289.247 147.943,296.929 143.708 C 311.531 135.659,317.628 133.272,334.136 129.142 C 340.568 127.533,340.568 127.553,334.121 133.773 C 326.245 141.371,324.737 143.951,326.734 146.417 C 329.780 150.179,342.605 145.045,360.501 132.901 C 364.177 130.406,364.191 130.823,360.615 136.215 C 352.880 147.880,355.135 150.377,370.400 147.053 C 385.275 143.813,400.000 139.067,400.000 137.511 C 400.000 136.569,398.043 136.766,394.400 138.075 C 380.929 142.916,360.479 147.412,358.938 145.872 C 358.234 145.167,359.641 142.246,363.312 136.792 C 368.967 128.391,369.096 128.157,368.544 127.304 C 367.595 125.840,365.465 126.551,360.055 130.137 C 342.815 141.566,330.874 147.099,328.812 144.614 C 328.079 143.731,329.030 142.618,337.832 134.070 C 348.448 123.760,348.125 122.854,335.000 126.139 C 317.417 130.540,308.548 133.863,298.000 140.004 C 294.131 142.256,288.141 145.200,287.426 145.200 C 286.301 145.200,286.743 144.449,291.196 138.806 C 297.824 130.403,298.050 129.854,296.300 126.386 C 294.003 121.834,286.380 122.803,266.600 130.161 C 255.881 134.148,253.738 134.939,244.200 138.431 C 234.646 141.928,234.690 141.948,240.900 136.922 C 252.148 127.817,266.278 112.162,277.835 96.000 C 282.479 89.506,285.574 84.583,292.926 72.000 C 296.089 66.587,299.368 60.560,304.171 51.335 L 305.662 48.471 311.731 48.317 C 322.441 48.046,327.781 44.679,330.349 36.577 C 334.020 24.998,327.745 10.404,320.732 14.212 M324.161 15.985 C 327.085 17.097,328.964 22.133,328.943 28.800 C 328.907 40.090,323.082 45.572,311.100 45.593 C 306.854 45.601,306.835 45.587,307.989 43.338 C 308.423 42.492,309.345 40.540,310.037 39.000 C 317.328 22.792,321.243 15.600,322.774 15.600 C 322.980 15.600,323.604 15.773,324.161 15.985 M304.496 74.398 C 302.978 75.324,301.539 77.464,301.693 78.569 C 301.880 79.912,302.725 79.703,303.763 78.058 C 304.967 76.151,306.151 75.650,307.203 76.603 C 308.114 77.427,308.800 77.081,308.800 75.799 C 308.800 73.836,306.596 73.118,304.496 74.398 M172.200 85.245 C 170.218 85.696,168.802 87.146,169.799 87.703 C 170.191 87.923,170.629 87.909,170.921 87.669 C 171.184 87.452,172.445 87.081,173.723 86.846 C 176.491 86.337,176.836 86.158,176.540 85.387 C 176.287 84.729,174.696 84.676,172.200 85.245 " stroke="none" fill="#000000" fill-rule="evenodd"></path></g></svg>