<svg xmlns="http://www.w3.org/2000/svg" version="1.1" width="292" height="252" viewBox="0 0 292 252" preserveAspectRatio="xMidYMid meet"><g transform="translate(0.000000,252.000000) scale(0.100000,-0.100000)"><path d="M682 2453c-22-38-115-198-207-358-213-367-376-649-432-745-23-41-43-84-43-96 0-11 44-96 98-190 154-264 336-578 483-831l134-233 741 0 742 0 195 338c107 185 268 462 357 615 88 153 164 285 167 292 3 8-73 149-168 312-423 730-532 919-542 941l-10 22-738 0-738 0-39-67zm951-447c156-36 303-123 379-223 46-61 102-179 123-258 41-159 39-385-6-530-57-187-179-333-349-418-164-82-208-89-557-95l-303-4 0 777 0 777 323-5c244-4 338-9 390-21zM1225 1719c-3-8-4-221-3-474l3-460 130 1c104 0 144 5 201 22 137 42 225 127 267 257 32 101 32 299-1 402-39 125-121 202-256 240-28 8-115 17-193 20-116 5-144 3-148-8z"/></g></svg>