<svg xmlns="http://www.w3.org/2000/svg" version="1.1" width="256.000000pt" height="256.000000pt" viewBox="0 0 256.000000 256.000000" preserveAspectRatio="xMidYMid meet"><g transform="translate(0.000000,256.000000) scale(0.100000,-0.100000)"><path d="M333 2545c-118-32-229-119-279-217-55-108-54-90-54-1048 0-958-1-940 54-1048 31-60 118-147 178-178 102-52 129-54 605-54l443 0 0 485 0 485-155 0-155 0 0 210 0 210 154 0 153 0 6 138c3 75 12 160 20 187 33 118 125 249 221 314 91 62 136 71 366 71l210 0 0-210 0-210-170 0c-110 0-178-4-195-12-44-20-55-56-55-173l0-105 210 0 210 0 0-210 0-210-210 0-210 0 0-485 0-485 243 0c322 0 393 18 506 131 60 60 94 121 116 206 22 86 22 1800 0 1886-22 85-56 146-116 206-60 60-121 94-206 116-83 22-1810 21-1890 0z"/></g></svg>