<svg xmlns="http://www.w3.org/2000/svg" version="1.1" width="256" height="256" viewBox="0 0 256 256" preserveAspectRatio="xMidYMid meet"><g transform="translate(0.000000,256.000000) scale(0.100000,-0.100000)"><path d="M387 2550c-179-31-347-202-377-386-13-78-13-1690 0-1768 31-189 197-355 386-386 33-6 163-10 290-10 295 0 274-16 274 202l0 156-112-1c-192 0-248 30-321 171-46 89-92 145-150 187-16 11-29 29-30 40-2 18 4 20 48 20 74-1 132-39 202-131 77-103 123-129 223-128 42 1 91 8 110 16 29 13 37 23 48 64 7 27 24 63 38 81 30 40 30 43-4 43-50 0-185 39-257 74-129 63-197 142-248 284-45 122-53 317-19 427 12 40 57 123 83 157 20 24 21 31 10 72-16 63-14 147 6 227l16 69 36 0c63 0 187-46 273-101l47-31 78 19c109 25 376 25 485 0l77-18 68 40c94 55 197 93 246 89 37-3 41-6 54-43 21-59 28-183 13-245-12-48-11-54 9-78 83-105 116-237 101-410-14-154-73-295-157-374-75-71-230-138-355-153-60-8-68-14-44-34 8-6 24-35 37-64 22-49 24-65 27-307 1-140 5-264 7-276 2-11 16-26 30-32 32-15 443-16 529-2 189 31 355 197 386 386 13 78 13 1690 0 1768-31 189-197 355-386 386-71 12-1707 11-1777 0z"/></g></svg>