<svg xmlns="http://www.w3.org/2000/svg" version="1.1" width="256.000000pt" height="245.000000pt" viewBox="0 0 256.000000 245.000000" preserveAspectRatio="xMidYMid meet"><g transform="translate(0.000000,245.000000) scale(0.100000,-0.100000)"><path d="M152 2437c-53-20-103-66-128-121-19-41-24-67-24-138l0-87 158-142c348-314 706-606 905-739 141-94 200-117 254-99 152 49 516 326 1066 813l179 159-4 96c-6 146-50 219-155 257-52 18-2200 19-2251 1zM0 949l0-764 24-51c28-60 82-108 140-123 30-9 340-11 1136-9l1095 3 46 27c50 30 91 84 108 144 7 26 11 280 11 787l0 748-29-23c-15-13-91-77-167-143-578-500-963-775-1084-775-122 0-577 333-1232 901l-48 41 0-763z"/></g></svg>