<svg xmlns="http://www.w3.org/2000/svg" version="1.1" width="256.000000pt" height="256.000000pt" viewBox="0 0 256.000000 256.000000" preserveAspectRatio="xMidYMid meet"><g transform="translate(0.000000,256.000000) scale(0.100000,-0.100000)"><path d="M451 2169c-171-20-276-63-345-140-96-107-110-208-104-784 4-381 6-416 26-489 51-186 135-278 305-331 128-41 215-45 943-45 739 0 852 5 973 46 125 42 191 99 243 210 59 126 62 162 63 679 0 414-2 478-17 538-47 182-132 257-343 305-60 13-185 16-870 18-440 1-834-2-874-7zm916-660c150-78 282-149 293-158 31-25 35-71 11-103-24-30-546-307-595-315-22-3-39 1-59 17l-27 21 0 317c0 310 0 316 22 339 13 14 33 23 51 23 19 0 132-52 304-141z"/></g></svg>