<svg width="190" height="255" xmlns="http://www.w3.org/2000/svg" xmlns:svg="http://www.w3.org/2000/svg">
 <g>
  <title>Layer 1</title>
  <g stroke="null" id="svg_1" fill-rule="evenodd">
   <path stroke="null" id="svg_2" d="m152.2,3.06c-0.057,0.06 -1.947,0.212 -4.2,0.338c-2.255,0.126 -4.505,0.35 -5,0.5c-0.495,0.148 -1.647,0.33 -2.56,0.4c-0.914,0.073 -1.95,0.248 -2.3,0.39c-0.352,0.143 -1.24,0.318 -1.975,0.39c-0.735,0.072 -1.635,0.252 -2,0.4c-0.366,0.15 -1.158,0.333 -1.76,0.41c-0.602,0.075 -1.204,0.228 -1.336,0.338c-0.14,0.11 -0.82,0.282 -1.53,0.382c-0.71,0.1 -1.54,0.318 -1.87,0.485c-0.32,0.168 -0.86,0.308 -1.19,0.313c-0.33,0.004 -0.96,0.18 -1.4,0.394c-0.44,0.213 -1.08,0.39 -1.41,0.393c-0.33,0.004 -0.8,0.14 -1.03,0.3c-0.23,0.162 -0.82,0.356 -1.3,0.43c-0.48,0.076 -1.19,0.304 -1.57,0.507c-0.39,0.204 -0.89,0.37 -1.13,0.37s-0.54,0.132 -0.67,0.292c-0.14,0.16 -0.44,0.352 -0.68,0.425c-1.34,0.41 -9.33,7.888 -22.63,21.19c-6.79,6.785 -9.53,9.59 -15.51,15.88c-0.39,0.403 -1.51,1.628 -2.5,2.72c-0.99,1.093 -2.24,2.438 -2.76,2.99c-1.97,2.05 -1.92,3.445 0.09,2.628c0.37,-0.15 1.23,-0.335 1.92,-0.41c0.68,-0.074 1.54,-0.254 1.9,-0.4c0.35,-0.144 1.27,-0.324 2.03,-0.398c0.76,-0.074 1.56,-0.232 1.78,-0.352c0.22,-0.12 1.06,-0.29 1.86,-0.38c0.8,-0.09 1.87,-0.304 2.37,-0.474c0.5,-0.17 1.3,-0.31 1.78,-0.31c0.47,0 1.43,-0.18 2.12,-0.4c0.69,-0.22 1.68,-0.4 2.22,-0.4c0.53,0 1.38,-0.14 1.89,-0.31s1.67,-0.39 2.59,-0.48c0.92,-0.09 1.83,-0.26 2.03,-0.36c0.2,-0.1 1.28,-0.28 2.4,-0.4c1.11,-0.11 2.21,-0.29 2.42,-0.41c0.21,-0.11 1.14,-0.26 2.06,-0.33c0.92,-0.07 2.08,-0.25 2.57,-0.4c0.5,-0.15 1.67,-0.33 2.6,-0.39c0.94,-0.07 2.11,-0.25 2.6,-0.39c0.5,-0.15 1.8,-0.33 2.9,-0.41c1.1,-0.08 2.23,-0.22 2.5,-0.33c0.28,-0.1 1.67,-0.32 3.1,-0.47c1.43,-0.15 3.14,-0.37 3.8,-0.48c0.66,-0.11 2.1,-0.29 3.2,-0.4c1.1,-0.11 2.63,-0.29 3.4,-0.4c6.89,-0.95 8.86,-0.56 10.47,2.04l0.45,0.73l0.08,12.96c0.04,7.13 0.17,13.91 0.29,15.06c0.11,1.16 0.3,5.34 0.41,9.3c0.11,3.96 0.29,7.65 0.4,8.19c0.11,0.55 0.29,3.07 0.39,5.6c0.1,2.54 0.28,4.97 0.4,5.41c0.11,0.44 0.26,2.11 0.32,3.7c0.18,4.08 0.61,4.66 2.07,2.75c0.44,-0.58 1.16,-1.51 1.6,-2.09c0.44,-0.57 0.8,-1.13 0.8,-1.24c0,-0.11 0.12,-0.27 0.27,-0.36c0.14,-0.08 0.56,-0.63 0.93,-1.21c0.37,-0.57 0.75,-1.05 0.84,-1.05c0.09,0 0.16,-0.1 0.16,-0.22s0.22,-0.5 0.49,-0.85s0.66,-0.84 0.85,-1.1c0.19,-0.26 0.51,-0.61 0.7,-0.79c0.19,-0.17 0.35,-0.4 0.35,-0.5c0,-0.17 0.7,-1.11 1.3,-1.75c0.17,-0.17 0.3,-0.39 0.3,-0.48c0,-0.09 0.14,-0.31 0.31,-0.48c0.28,-0.28 2.4,-3.02 4.43,-5.72c1.05,-1.39 9.17,-11.58 9.77,-12.25c0.63,-0.71 0.63,-0.7 2.21,-2.67c0.74,-0.92 1.49,-1.83 1.66,-2.01c0.38,-0.41 0.64,-0.71 1.91,-2.26c1.17,-1.41 2.02,-2.39 2.65,-3.05c0.25,-0.25 0.45,-0.55 0.45,-0.65c0,-0.1 0.13,-0.25 0.28,-0.34c0.15,-0.09 0.55,-0.5 0.88,-0.91c0.74,-0.94 2.46,-2.89 3.62,-4.11c1.11,-1.18 3.02,-3.73 3.02,-4.05c0,-0.13 0.17,-1.01 0.39,-1.96c0.21,-0.95 0.48,-2.71 0.6,-3.92c0.11,-1.21 0.3,-2.83 0.42,-3.6c0.29,-1.93 0.14,-17.74 -0.19,-18.7c-0.13,-0.39 -0.29,-1.47 -0.35,-2.4c-0.06,-0.94 -0.24,-2.11 -0.39,-2.6c-0.15,-0.5 -0.34,-1.44 -0.41,-2.1c-0.07,-0.66 -0.25,-1.43 -0.39,-1.72c-0.15,-0.28 -0.33,-1 -0.41,-1.6c-0.08,-0.59 -0.25,-1.26 -0.39,-1.48c-0.14,-0.22 -0.32,-0.76 -0.39,-1.2c-0.08,-0.44 -0.25,-0.98 -0.39,-1.2c-0.13,-0.22 -0.31,-0.67 -0.39,-1c-0.08,-0.33 -0.31,-0.96 -0.51,-1.4c-0.51,-1.12 -1.38,-2.94 -1.58,-3.3l-0.34,-0.63c-1.02,-1.83 -3.25,-4.23 -4.57,-4.92c-0.32,-0.17 -0.71,-0.43 -0.86,-0.58c-0.15,-0.15 -0.37,-0.27 -0.48,-0.27c-0.11,0 -0.44,-0.18 -0.71,-0.4c-0.28,-0.22 -0.67,-0.4 -0.86,-0.4c-0.19,0 -0.46,-0.13 -0.6,-0.29c-0.13,-0.16 -0.57,-0.35 -0.97,-0.42s-0.92,-0.24 -1.14,-0.38c-0.23,-0.14 -0.92,-0.36 -1.55,-0.49s-1.19,-0.31 -1.24,-0.4c-0.06,-0.09 -0.67,-0.23 -1.36,-0.3c-0.69,-0.07 -1.75,-0.26 -2.35,-0.42c-1.61,-0.42 -13.32,-1.13 -13.6,-0.82m-29.81,53.72c-0.39,0.08 -0.81,0.2 -0.94,0.28c-0.13,0.08 -1.31,0.23 -2.63,0.33c-1.32,0.1 -2.58,0.28 -2.81,0.4c-0.22,0.12 -1.38,0.3 -2.58,0.39c-1.2,0.1 -2.35,0.27 -2.57,0.38c-0.21,0.11 -1.34,0.3 -2.51,0.4c-1.16,0.11 -2.3,0.29 -2.51,0.41c-0.21,0.12 -1.15,0.27 -2.07,0.35c-0.92,0.07 -2.01,0.25 -2.43,0.4c-0.41,0.14 -1.45,0.32 -2.3,0.4c-0.85,0.08 -1.88,0.25 -2.28,0.4c-0.41,0.15 -1.4,0.32 -2.2,0.39c-0.81,0.07 -1.78,0.25 -2.16,0.39c-0.39,0.15 -1.37,0.33 -2.18,0.41c-0.82,0.08 -1.76,0.26 -2.1,0.4c-0.34,0.14 -1.24,0.32 -1.99,0.4c-0.75,0.08 -1.65,0.26 -2,0.4c-0.35,0.14 -1.26,0.32 -2.02,0.39c-0.77,0.08 -1.5,0.23 -1.63,0.33c-0.13,0.11 -0.94,0.28 -1.81,0.38c-0.86,0.1 -1.91,0.32 -2.32,0.49c-0.41,0.17 -1.05,0.31 -1.42,0.31s-1.24,0.18 -1.93,0.4c-0.69,0.22 -1.53,0.4 -1.88,0.4s-1.14,0.18 -1.77,0.4c-0.62,0.22 -1.43,0.4 -1.8,0.4c-0.36,0 -1.17,0.18 -1.8,0.4c-0.62,0.22 -1.38,0.4 -1.69,0.4c-2.3,0 -4.46,1.48 -7.33,5c-0.76,0.93 -1.48,1.79 -1.61,1.9c-0.13,0.11 -1.02,1.19 -1.99,2.4s-1.89,2.27 -2.04,2.36c-0.15,0.09 -0.28,0.26 -0.28,0.38s-0.12,0.32 -0.28,0.44c-0.15,0.12 -1.74,2.07 -3.53,4.32c-1.79,2.26 -3.38,4.24 -3.53,4.4c-0.23,0.25 -2.17,2.75 -4.01,5.17c-0.19,0.26 -0.53,0.68 -0.75,0.93c-0.22,0.26 -0.53,0.66 -0.7,0.9c-0.16,0.24 -0.84,1.15 -1.5,2.01c-1.36,1.78 -3.67,4.84 -4.05,5.35c-0.13,0.19 -0.63,0.86 -1.1,1.49c-0.47,0.63 -1.34,1.83 -1.95,2.66c-0.6,0.83 -1.48,2 -1.95,2.59c-0.47,0.59 -0.85,1.14 -0.85,1.21c0,0.08 -0.2,0.39 -0.45,0.69c-0.25,0.3 -0.58,0.76 -0.75,1.01c-0.16,0.26 -0.46,0.63 -0.65,0.83c-0.19,0.2 -0.35,0.44 -0.35,0.52c0,0.08 -0.2,0.39 -0.45,0.69c-0.25,0.3 -0.76,1 -1.15,1.56c-0.38,0.56 -0.92,1.32 -1.2,1.68c-0.27,0.37 -0.61,0.83 -0.75,1.04c-0.67,1.01 -1.38,2.06 -1.93,2.84c-0.34,0.48 -0.72,1.05 -0.85,1.28c-0.13,0.22 -0.31,0.46 -0.4,0.53c-1.32,0.97 -1.86,6.86 -0.84,9.22c0.12,0.28 0.3,1.43 0.39,2.57c0.1,1.14 0.28,2.25 0.4,2.47c0.12,0.23 0.29,1.3 0.39,2.39c0.09,1.09 0.31,2.38 0.48,2.88c0.17,0.5 0.3,1.35 0.3,1.89s0.14,1.4 0.31,1.91s0.39,1.68 0.49,2.6c0.09,0.92 0.27,1.85 0.38,2.06c0.12,0.22 0.3,1.1 0.41,1.97c0.11,0.87 0.33,2.06 0.5,2.67c0.17,0.6 0.31,1.38 0.31,1.72s0.13,0.96 0.3,1.36c0.17,0.4 0.36,1.28 0.43,1.97s0.24,1.48 0.38,1.75c0.14,0.28 0.32,1.04 0.4,1.7c0.08,0.66 0.26,1.43 0.39,1.7c0.13,0.28 0.31,0.95 0.39,1.5c0.07,0.55 0.29,1.43 0.47,1.95c0.31,0.89 0.31,0.99 0,1.6c-0.19,0.36 -0.4,0.97 -0.47,1.35c-0.08,0.39 -0.26,0.9 -0.42,1.15c-0.16,0.24 -0.28,0.59 -0.28,0.76c0,0.18 -0.17,0.75 -0.37,1.26c-0.54,1.36 -1.03,2.83 -1.24,3.65c-0.1,0.39 -0.32,0.98 -0.48,1.3c-0.17,0.32 -0.31,0.77 -0.32,0.99c-0.01,0.22 -0.18,0.76 -0.4,1.2c-0.21,0.44 -0.39,1 -0.39,1.26c0,0.25 -0.19,0.81 -0.41,1.24c-0.22,0.43 -0.4,1.01 -0.4,1.29s-0.18,0.85 -0.4,1.26c-0.22,0.41 -0.4,0.95 -0.4,1.21c0,0.25 -0.13,0.7 -0.28,1.01c-0.15,0.3 -0.35,0.9 -0.43,1.34c-0.08,0.43 -0.26,1.01 -0.41,1.29c-0.15,0.27 -0.35,0.9 -0.46,1.4c-0.19,0.85 -0.58,2.17 -1.05,3.5c-0.12,0.33 -0.32,1.09 -0.46,1.7c-0.14,0.6 -0.34,1.28 -0.45,1.5c-0.12,0.22 -0.27,0.79 -0.34,1.27c-0.08,0.48 -0.27,1.07 -0.43,1.3c-0.17,0.23 -0.3,0.65 -0.31,0.93c0,0.28 -0.14,0.87 -0.31,1.31c-0.17,0.44 -0.4,1.23 -0.5,1.74c-0.11,0.52 -0.32,1.2 -0.48,1.5c-0.16,0.31 -0.3,0.83 -0.3,1.16c-0.01,0.33 -0.18,0.96 -0.4,1.4c-0.22,0.44 -0.39,1.07 -0.4,1.4c0,0.33 -0.14,0.86 -0.31,1.18c-0.16,0.32 -0.35,0.95 -0.41,1.4c-0.07,0.45 -0.29,1.25 -0.5,1.76c-0.21,0.52 -0.38,1.17 -0.38,1.46c0,0.29 -0.14,0.79 -0.31,1.11c-0.17,0.32 -0.36,1.02 -0.43,1.54s-0.23,1.14 -0.37,1.36c-0.14,0.22 -0.31,0.9 -0.39,1.5c-0.08,0.6 -0.26,1.27 -0.4,1.49c-0.14,0.22 -0.32,0.85 -0.4,1.4c-0.08,0.55 -0.27,1.27 -0.42,1.6c-0.15,0.33 -0.33,1.01 -0.41,1.5c-0.07,0.5 -0.25,1.13 -0.38,1.4c-0.14,0.28 -0.31,0.99 -0.39,1.58c-0.07,0.6 -0.27,1.34 -0.43,1.64c-0.16,0.31 -0.29,0.82 -0.3,1.12c0,0.31 -0.14,0.92 -0.31,1.36c-0.17,0.44 -0.39,1.34 -0.49,1.98c-0.1,0.65 -0.28,1.3 -0.4,1.44c-0.11,0.14 -0.29,0.86 -0.4,1.61c-0.1,0.74 -0.28,1.46 -0.4,1.6c-0.11,0.14 -0.29,0.86 -0.4,1.61c-0.11,0.75 -0.28,1.45 -0.39,1.55c-0.27,0.27 -0.24,1.18 0.05,1.47c0.36,0.36 7.76,0.34 7.76,-0.02c0,-0.14 0.17,-0.6 0.39,-1.02c0.21,-0.42 0.45,-1.04 0.52,-1.39c0.08,-0.34 0.26,-0.8 0.41,-1.02c0.15,-0.22 0.27,-0.54 0.27,-0.71c0,-0.17 0.18,-0.67 0.4,-1.1c0.22,-0.43 0.4,-0.92 0.4,-1.09c0,-0.17 0.18,-0.65 0.4,-1.06c0.22,-0.41 0.4,-0.86 0.4,-1s0.18,-0.59 0.4,-1c0.22,-0.41 0.4,-0.9 0.4,-1.1c0,-0.19 0.18,-0.62 0.4,-0.95c0.22,-0.33 0.4,-0.78 0.4,-1c0,-0.22 0.18,-0.67 0.4,-1c0.22,-0.33 0.39,-0.75 0.4,-0.95c0,-0.19 0.18,-0.68 0.4,-1.09c0.22,-0.41 0.4,-0.86 0.4,-1s0.18,-0.59 0.4,-1c0.22,-0.41 0.4,-0.9 0.4,-1.08c0,-0.18 0.13,-0.44 0.3,-0.57c0.16,-0.14 0.3,-0.4 0.3,-0.58c0,-0.18 0.17,-0.68 0.38,-1.1c0.22,-0.42 0.45,-1.02 0.52,-1.33c0.07,-0.31 0.26,-0.67 0.42,-0.8c0.15,-0.13 0.28,-0.39 0.28,-0.57c0,-0.18 0.18,-0.67 0.39,-1.09c0.22,-0.42 0.45,-1.02 0.52,-1.33c0.07,-0.31 0.26,-0.67 0.42,-0.8c0.15,-0.13 0.28,-0.41 0.28,-0.62c0,-0.21 0.17,-0.72 0.37,-1.12c0.21,-0.41 0.56,-1.15 0.77,-1.64c0.47,-1.06 1.05,-2.35 1.63,-3.62c0.23,-0.51 0.42,-1.06 0.42,-1.23c0,-0.16 0.14,-0.41 0.3,-0.55c0.17,-0.13 0.3,-0.34 0.3,-0.46s0.17,-0.58 0.38,-1.02c0.92,-1.97 1.39,-3.04 1.51,-3.46c0.08,-0.25 0.21,-0.45 0.3,-0.45c0.1,0 0.23,-0.31 0.3,-0.68c0.07,-0.38 0.26,-0.79 0.42,-0.93c0.16,-0.14 0.29,-0.37 0.29,-0.53c0,-0.16 0.18,-0.62 0.39,-1.03c0.21,-0.41 0.76,-1.55 1.22,-2.54c0.46,-0.99 1.18,-2.5 1.61,-3.37c0.43,-0.86 0.78,-1.68 0.78,-1.82c0,-0.14 0.13,-0.37 0.3,-0.51c0.16,-0.13 0.39,-0.59 0.51,-1.02c0.11,-0.42 0.28,-0.77 0.37,-0.77c0.09,0 0.27,-0.36 0.4,-0.8c0.13,-0.44 0.31,-0.8 0.4,-0.8c0.09,0 0.27,-0.36 0.4,-0.8c0.13,-0.44 0.32,-0.8 0.41,-0.8c0.09,0 0.23,-0.27 0.3,-0.59c0.07,-0.32 0.26,-0.69 0.42,-0.82c0.16,-0.13 0.28,-0.4 0.28,-0.59c0,-0.19 0.18,-0.58 0.4,-0.86c0.22,-0.28 0.4,-0.64 0.4,-0.8c0,-0.16 0.18,-0.52 0.4,-0.8c0.22,-0.28 0.4,-0.64 0.4,-0.8c0,-0.16 0.18,-0.52 0.4,-0.8c0.22,-0.28 0.4,-0.64 0.4,-0.8c0,-0.16 0.18,-0.52 0.4,-0.8c0.22,-0.28 0.4,-0.64 0.4,-0.8c0,-0.16 0.18,-0.52 0.4,-0.8c0.22,-0.28 0.4,-0.64 0.4,-0.81c0,-0.17 0.11,-0.42 0.26,-0.57c0.14,-0.14 0.55,-0.85 0.91,-1.56c0.35,-0.72 0.73,-1.44 0.84,-1.6c0.1,-0.17 0.28,-0.53 0.4,-0.8c0.11,-0.28 0.43,-0.86 0.69,-1.3c0.27,-0.44 0.58,-1.03 0.69,-1.3c0.11,-0.28 0.29,-0.64 0.4,-0.8c0.11,-0.17 0.33,-0.58 0.48,-0.93c0.16,-0.34 0.38,-0.68 0.49,-0.75c0.11,-0.07 0.26,-0.39 0.34,-0.72c0.08,-0.33 0.2,-0.6 0.29,-0.6c0.09,0 0.3,-0.33 0.48,-0.75c0.18,-0.41 0.54,-1.11 0.81,-1.55c0.26,-0.44 0.77,-1.34 1.12,-2c0.35,-0.66 0.85,-1.56 1.12,-2c0.26,-0.44 0.62,-1.07 0.79,-1.4c0.17,-0.33 0.53,-0.96 0.79,-1.4c0.26,-0.44 0.62,-1.07 0.79,-1.4c0.17,-0.33 0.53,-0.96 0.79,-1.4c0.27,-0.44 0.63,-1.07 0.8,-1.4c0.17,-0.33 0.54,-0.96 0.81,-1.4c0.27,-0.44 0.59,-1.04 0.72,-1.35c0.13,-0.3 0.3,-0.55 0.39,-0.55c0.09,0 0.26,-0.24 0.39,-0.55c0.12,-0.3 0.44,-0.91 0.71,-1.35c0.26,-0.44 0.63,-1.07 0.82,-1.4c0.18,-0.33 0.39,-0.64 0.47,-0.7c0.07,-0.05 0.25,-0.39 0.39,-0.75c0.14,-0.35 0.33,-0.65 0.42,-0.65c0.09,0 0.22,-0.18 0.29,-0.42c0.07,-0.23 0.42,-0.83 0.76,-1.35c0.35,-0.51 0.77,-1.17 0.93,-1.46c0.17,-0.3 0.65,-1.11 1.06,-1.8c0.42,-0.7 0.87,-1.44 1,-1.66c0.6,-1 1.27,-2.02 1.5,-2.26c0.14,-0.14 0.25,-0.36 0.25,-0.48s0.15,-0.39 0.33,-0.59c0.38,-0.42 0.73,-0.99 1.17,-1.91c0.17,-0.36 0.4,-0.65 0.5,-0.65c0.11,0 0.2,-0.11 0.2,-0.25s0.45,-0.93 1,-1.75l1.24,-1.87c0.13,-0.2 0.4,-0.58 0.59,-0.83c0.19,-0.25 0.35,-0.54 0.35,-0.63c0,-0.1 0.2,-0.46 0.45,-0.8s0.56,-0.79 0.7,-0.99c1.53,-2.3 2.06,-3.13 2.06,-3.26c0,-0.09 0.18,-0.32 0.4,-0.52c0.22,-0.2 0.4,-0.47 0.4,-0.6s0.18,-0.4 0.4,-0.6c0.22,-0.2 0.4,-0.46 0.4,-0.59c0,-0.12 0.18,-0.38 0.4,-0.57c0.22,-0.19 0.4,-0.47 0.4,-0.62c0,-0.16 0.13,-0.34 0.3,-0.4c0.16,-0.07 0.3,-0.25 0.3,-0.42c0,-0.17 0.16,-0.47 0.35,-0.66c0.19,-0.2 1.11,-1.48 2.03,-2.85c2.75,-4.08 3.32,-4.92 3.73,-5.45c0.21,-0.28 0.52,-0.71 0.68,-0.95c0.16,-0.25 0.49,-0.68 0.71,-0.97c0.23,-0.29 0.47,-0.68 0.54,-0.87c0.07,-0.19 0.22,-0.35 0.34,-0.35c0.11,0 0.21,-0.11 0.21,-0.25c0,-0.23 0.49,-0.91 1.29,-1.8c0.18,-0.19 0.32,-0.4 0.32,-0.47c0,-0.15 1.94,-2.84 3.15,-4.37c0.47,-0.6 0.85,-1.17 0.85,-1.28c0,-0.12 0.11,-0.28 0.25,-0.37c0.24,-0.15 0.76,-0.84 1.25,-1.64c0.11,-0.18 0.31,-0.46 0.45,-0.62c0.14,-0.16 0.66,-0.83 1.15,-1.49c0.49,-0.66 1.05,-1.39 1.25,-1.62c0.19,-0.23 0.48,-0.63 0.65,-0.88c0.16,-0.25 0.67,-0.91 1.11,-1.48c0.45,-0.56 1.21,-1.56 1.68,-2.22c0.48,-0.66 1.02,-1.35 1.19,-1.54c0.18,-0.19 0.47,-0.55 0.66,-0.8c0.58,-0.77 8.4,-10.64 8.68,-10.96c0.89,-0.99 1.28,-1.47 1.28,-1.58c0,-0.06 0.36,-0.52 0.8,-1.02c1.14,-1.29 1.14,-1.28 2.67,-3.17c0.77,-0.95 1.54,-1.86 1.72,-2.04c0.17,-0.17 0.63,-0.7 1.02,-1.17c0.38,-0.46 0.81,-0.97 0.96,-1.13c0.14,-0.16 0.73,-0.85 1.3,-1.54c1.27,-1.55 1.45,-1.76 2.36,-2.74c0.39,-0.42 1.3,-1.48 2.01,-2.34c0.71,-0.86 1.58,-1.88 1.93,-2.26c1.27,-1.39 0.63,-2.05 -1.57,-1.62m8.69,8.94c-0.65,0.74 -1.36,1.53 -1.57,1.75c-0.21,0.22 -1.03,1.17 -1.82,2.11s-1.65,1.94 -1.91,2.22c-0.27,0.28 -1.29,1.49 -2.28,2.7c-0.99,1.2 -1.94,2.33 -2.1,2.5c-0.17,0.17 -0.62,0.7 -1,1.16c-0.39,0.47 -0.88,1.06 -1.1,1.32c-0.49,0.56 -0.48,0.55 -3.19,3.91c-1.19,1.48 -2.29,2.8 -2.44,2.92c-0.15,0.12 -0.27,0.3 -0.27,0.38c0,0.09 -0.14,0.31 -0.31,0.48c-0.17,0.17 -0.76,0.89 -1.31,1.59c-0.55,0.7 -1.11,1.39 -1.25,1.55c-0.13,0.16 -0.4,0.48 -0.59,0.73c-0.77,1.01 -3.76,4.89 -4.09,5.32c-0.2,0.26 -0.54,0.67 -0.76,0.92c-0.22,0.26 -0.54,0.67 -0.7,0.92c-0.17,0.25 -0.84,1.16 -1.5,2.02c-1.87,2.44 -3.53,4.66 -4.4,5.89c-0.44,0.61 -1.16,1.6 -1.6,2.19c-0.44,0.59 -0.94,1.28 -1.1,1.52c-0.45,0.66 -1.35,1.86 -1.66,2.2c-0.15,0.17 -0.33,0.46 -0.4,0.65s-0.22,0.35 -0.34,0.35c-0.11,0 -0.21,0.12 -0.21,0.27c0,0.15 -0.28,0.63 -0.62,1.05c-0.34,0.43 -0.94,1.28 -1.33,1.88c-0.39,0.61 -0.81,1.19 -0.93,1.31c-0.12,0.11 -0.31,0.35 -0.42,0.53c-0.5,0.8 -1.81,2.7 -2.03,2.92c-0.13,0.14 -0.3,0.43 -0.37,0.65c-0.07,0.22 -0.21,0.4 -0.32,0.4c-0.11,0 -0.25,0.16 -0.33,0.35c-0.07,0.19 -0.41,0.74 -0.74,1.22c-0.34,0.48 -0.7,1.02 -0.81,1.22c-0.11,0.19 -0.36,0.5 -0.55,0.69c-0.2,0.19 -0.35,0.47 -0.35,0.61s-0.18,0.42 -0.4,0.61c-0.22,0.2 -0.4,0.49 -0.4,0.64c0,0.15 -0.13,0.33 -0.29,0.39c-0.16,0.06 -0.35,0.28 -0.41,0.49c-0.07,0.21 -0.23,0.49 -0.36,0.63c-0.36,0.39 -1.14,1.52 -1.14,1.64c0,0.21 -1.1,1.8 -1.35,1.96c-0.14,0.09 -0.25,0.27 -0.25,0.41c0,0.14 -0.21,0.53 -0.45,0.87c-0.55,0.76 -0.77,1.08 -1.6,2.36c-0.35,0.55 -0.76,1.12 -0.9,1.26c-0.14,0.15 -0.25,0.38 -0.25,0.52s-0.18,0.42 -0.4,0.62c-0.22,0.2 -0.4,0.43 -0.4,0.52c0,0.16 -0.81,1.46 -1.19,1.92c-0.11,0.13 -0.2,0.31 -0.2,0.4c0,0.08 -0.36,0.67 -0.8,1.31c-0.44,0.63 -0.8,1.22 -0.8,1.32c0,0.09 -0.18,0.33 -0.4,0.53c-0.22,0.2 -0.4,0.46 -0.4,0.59c0,0.12 -0.14,0.4 -0.3,0.62c-0.44,0.57 -1.17,1.72 -1.46,2.29c-0.14,0.27 -0.42,0.77 -0.64,1.1c-0.22,0.33 -0.58,0.91 -0.8,1.3c-0.23,0.38 -0.59,0.97 -0.81,1.3c-0.22,0.33 -0.53,0.89 -0.7,1.25c-0.17,0.35 -0.37,0.65 -0.46,0.65c-0.08,0 -0.26,0.24 -0.39,0.55c-0.13,0.3 -0.46,0.91 -0.73,1.35c-0.73,1.2 -1.25,2.12 -1.59,2.85c-0.16,0.35 -0.4,0.65 -0.51,0.65c-0.12,0 -0.21,0.17 -0.21,0.38s-0.09,0.44 -0.19,0.5c-0.16,0.1 -0.7,1 -2.27,3.77l-1.15,2.03c-0.43,0.77 -0.92,1.69 -1.09,2.05c-0.17,0.36 -0.39,0.65 -0.49,0.65c-0.1,0 -0.24,0.27 -0.31,0.6c-0.07,0.33 -0.21,0.65 -0.32,0.72c-0.1,0.07 -0.32,0.41 -0.48,0.76c-0.17,0.35 -0.52,1 -0.78,1.44c-0.26,0.44 -0.81,1.43 -1.21,2.2c-0.4,0.77 -0.94,1.76 -1.21,2.2c-0.26,0.44 -0.53,0.93 -0.6,1.1c-0.07,0.16 -0.21,0.43 -0.31,0.6c-0.1,0.16 -0.37,0.66 -0.58,1.1c-0.21,0.44 -0.48,0.96 -0.59,1.15c-0.11,0.19 -0.29,0.51 -0.4,0.7c-0.25,0.45 -1.62,3.11 -1.96,3.81c-0.14,0.3 -0.34,0.67 -0.44,0.84c-0.1,0.17 -0.5,0.95 -0.89,1.74s-0.79,1.49 -0.89,1.55c-0.1,0.06 -0.24,0.38 -0.31,0.7c-0.07,0.32 -0.26,0.69 -0.42,0.82c-0.16,0.14 -0.29,0.4 -0.29,0.59c0,0.19 -0.18,0.58 -0.4,0.86c-0.22,0.28 -0.4,0.65 -0.4,0.81c0,0.17 -0.12,0.43 -0.27,0.58c-0.14,0.15 -0.38,0.61 -0.51,1.02c-0.14,0.41 -0.32,0.74 -0.4,0.74c-0.08,0 -0.26,0.36 -0.39,0.8c-0.13,0.44 -0.31,0.8 -0.4,0.8c-0.09,0 -0.27,0.36 -0.4,0.8c-0.13,0.44 -0.32,0.8 -0.41,0.8c-0.24,0 -0.65,1.77 -0.51,2.22c0.15,0.48 0.51,0.48 1.44,-0.02c0.41,-0.22 0.86,-0.4 1,-0.4s0.59,-0.18 1,-0.4c0.41,-0.22 0.86,-0.4 1,-0.4s0.59,-0.18 1,-0.4c0.41,-0.22 0.86,-0.4 1.01,-0.4c0.14,0 0.46,-0.13 0.7,-0.28c0.25,-0.16 0.76,-0.35 1.13,-0.43c0.38,-0.08 0.8,-0.26 0.95,-0.4c0.14,-0.15 0.61,-0.32 1.05,-0.4c0.43,-0.07 0.89,-0.26 1.02,-0.42c0.13,-0.15 0.43,-0.28 0.66,-0.28c0.23,0 0.76,-0.18 1.17,-0.4c0.41,-0.22 0.9,-0.4 1.1,-0.4c0.19,0 0.62,-0.18 0.95,-0.4c0.33,-0.22 0.82,-0.4 1.1,-0.4c0.27,0 0.77,-0.18 1.1,-0.4c0.33,-0.22 0.75,-0.4 0.95,-0.4c0.19,0 0.68,-0.18 1.09,-0.4c0.41,-0.22 0.9,-0.4 1.1,-0.4c0.19,0 0.69,-0.18 1.1,-0.4c0.41,-0.22 0.9,-0.4 1.1,-0.4c0.19,0 0.69,-0.18 1.1,-0.4c0.41,-0.22 0.93,-0.4 1.15,-0.4c0.22,0 0.59,-0.13 0.81,-0.29c0.22,-0.15 0.76,-0.35 1.19,-0.42c0.43,-0.08 0.92,-0.25 1.09,-0.39c0.16,-0.14 0.65,-0.31 1.09,-0.39c0.43,-0.08 0.97,-0.27 1.19,-0.43c0.23,-0.15 0.59,-0.28 0.82,-0.28c0.22,0 0.74,-0.18 1.15,-0.4c0.41,-0.22 0.95,-0.4 1.2,-0.4s0.79,-0.18 1.2,-0.4c0.41,-0.22 0.95,-0.4 1.2,-0.4s0.79,-0.18 1.2,-0.4c0.41,-0.22 0.93,-0.4 1.15,-0.4c0.22,0 0.74,-0.18 1.15,-0.4c0.41,-0.22 0.94,-0.4 1.18,-0.4c0.23,0 0.82,-0.18 1.3,-0.4c0.48,-0.21 1.05,-0.4 1.27,-0.4c0.22,-0.01 0.76,-0.18 1.2,-0.4c0.44,-0.21 1.03,-0.39 1.3,-0.39c0.28,0 0.69,-0.14 0.92,-0.3c0.23,-0.16 0.81,-0.35 1.29,-0.42s1.07,-0.25 1.31,-0.4c0.24,-0.15 0.83,-0.33 1.3,-0.4c0.48,-0.08 1.05,-0.25 1.27,-0.39c0.22,-0.14 0.8,-0.31 1.29,-0.39c0.49,-0.08 1.07,-0.26 1.3,-0.4c0.22,-0.14 0.81,-0.32 1.3,-0.4c0.49,-0.08 1.12,-0.26 1.4,-0.4c0.27,-0.14 0.9,-0.32 1.4,-0.4c0.49,-0.08 1.08,-0.27 1.29,-0.42c0.21,-0.15 0.66,-0.28 1,-0.28c0.33,0 0.99,-0.18 1.47,-0.4c0.48,-0.22 0.98,-0.39 1.12,-0.39c0.57,0 2.06,-1.92 2.84,-3.65c0.18,-0.41 0.4,-0.75 0.48,-0.75c0.08,0 0.21,-0.27 0.28,-0.6c0.07,-0.33 0.23,-0.65 0.34,-0.72c0.11,-0.07 0.33,-0.41 0.49,-0.75c0.16,-0.34 0.5,-0.98 0.76,-1.42c0.26,-0.44 0.62,-1.07 0.79,-1.4c0.17,-0.33 0.4,-0.73 0.5,-0.9c0.11,-0.16 0.8,-1.38 1.54,-2.7c0.73,-1.32 1.46,-2.54 1.61,-2.72c0.15,-0.17 0.27,-0.42 0.27,-0.54c0,-0.19 0.66,-1.31 1.15,-1.94c0.08,-0.11 0.26,-0.43 0.4,-0.7c0.14,-0.28 0.47,-0.86 0.74,-1.3c0.89,-1.48 1.3,-2.2 1.55,-2.75c0.13,-0.31 0.32,-0.55 0.4,-0.55c0.08,0 0.29,-0.29 0.46,-0.65c0.39,-0.82 0.99,-1.88 1.5,-2.65c0.22,-0.33 0.53,-0.88 0.69,-1.22c0.16,-0.34 0.43,-0.73 0.6,-0.87c0.17,-0.14 0.31,-0.36 0.31,-0.49c0,-0.12 0.36,-0.77 0.8,-1.42c0.44,-0.66 0.8,-1.26 0.8,-1.35c0.01,-0.08 0.32,-0.6 0.71,-1.14c0.39,-0.55 0.7,-1.06 0.7,-1.15c0,-0.08 0.36,-0.67 0.8,-1.3c0.44,-0.63 0.8,-1.22 0.8,-1.31c0,-0.09 0.14,-0.33 0.3,-0.55c0.44,-0.58 1.17,-1.72 1.46,-2.29c0.13,-0.28 0.42,-0.77 0.64,-1.1c0.21,-0.33 0.57,-0.92 0.8,-1.3c0.23,-0.39 0.59,-0.97 0.8,-1.3c0.22,-0.33 0.55,-0.89 0.733,-1.25c0.18,-0.36 0.41,-0.65 0.5,-0.65c0.09,0 0.16,-0.11 0.16,-0.25s0.36,-0.77 0.8,-1.4c0.44,-0.64 0.8,-1.22 0.8,-1.3c0,-0.08 0.36,-0.67 0.8,-1.3c0.44,-0.64 0.8,-1.23 0.8,-1.32c0,-0.09 0.18,-0.38 0.4,-0.63c0.506,-0.58 0.56,-3.79 0.11,-6.35c-0.16,-0.9 -0.34,-3.02 -0.41,-4.7c-0.07,-1.68 -0.25,-3.91 -0.4,-4.95c-0.15,-1.04 -0.33,-3.29 -0.4,-5s-0.25,-4 -0.4,-5.1c-0.15,-1.1 -0.33,-3.75 -0.404,-5.9c-0.07,-2.14 -0.22,-4.3 -0.31,-4.8c-0.1,-0.49 -0.27,-3.42 -0.38,-6.5c-0.11,-3.08 -0.3,-6.54 -0.42,-7.7c-0.12,-1.15 -0.28,-4.3 -0.35,-7l-0.13,-4.9l-0.51,-0.06c-0.42,-0.05 -0.74,0.19 -1.7,1.29m-51.85,131c-0.28,0.16 -0.68,0.3 -0.9,0.3c-0.22,0.01 -0.76,0.19 -1.2,0.4c-0.44,0.22 -0.98,0.4 -1.2,0.4c-0.22,0.01 -0.76,0.19 -1.2,0.4c-0.44,0.22 -1.007,0.39 -1.25,0.4c-0.25,0 -0.79,0.18 -1.2,0.4c-0.41,0.22 -0.95,0.4 -1.2,0.4s-0.79,0.18 -1.2,0.4c-0.41,0.22 -0.907,0.4 -1.1,0.4c-0.19,0 -0.69,0.18 -1.1,0.4c-0.41,0.22 -0.93,0.4 -1.16,0.4c-0.227,0 -0.764,0.18 -1.196,0.4c-0.43,0.22 -0.97,0.4 -1.2,0.4c-0.22,0 -0.59,0.13 -0.8,0.28c-0.22,0.15 -0.71,0.34 -1.096,0.42c-0.39,0.08 -0.88,0.26 -1.105,0.4c-0.23,0.14 -0.72,0.32 -1.1,0.4c-0.39,0.08 -0.88,0.26 -1.1,0.4c-0.23,0.14 -0.72,0.32 -1.1,0.4c-0.38,0.09 -0.88,0.27 -1.1,0.41c-0.22,0.14 -0.72,0.32 -1.1,0.4c-0.38,0.08 -0.88,0.27 -1.09,0.42c-0.21,0.15 -0.53,0.28 -0.7,0.28c-0.17,0 -0.64,0.18 -1.05,0.4c-0.41,0.22 -0.9,0.4 -1.1,0.4c-0.19,0.01 -0.62,0.18 -0.95,0.4c-0.33,0.22 -0.75,0.4 -0.95,0.4c-0.19,0 -0.68,0.18 -1.09,0.4c-0.41,0.22 -0.88,0.4 -1.05,0.4c-0.16,0.01 -0.57,0.18 -0.9,0.4c-0.33,0.22 -0.75,0.4 -0.94,0.4c-0.19,0 -0.64,0.18 -1,0.4c-0.36,0.22 -0.84,0.4 -1.08,0.4c-0.23,0 -0.53,0.14 -0.67,0.3c-0.13,0.16 -0.55,0.35 -0.92,0.42s-0.77,0.25 -0.89,0.39c-0.12,0.15 -0.5,0.33 -0.85,0.4c-0.35,0.08 -0.77,0.25 -0.93,0.39c-0.16,0.14 -0.57,0.32 -0.9,0.39c-1.1,0.25 -1.59,0.89 -2.87,3.77c-0.2,0.47 -0.56,1.27 -0.8,1.77c-0.23,0.51 -0.42,1.06 -0.42,1.23c0,0.17 -0.12,0.41 -0.27,0.54c-0.15,0.13 -0.38,0.63 -0.5,1.13c-0.12,0.49 -0.31,0.89 -0.42,0.89c-0.1,0 -0.19,0.16 -0.2,0.35c0,0.19 -0.22,0.8 -0.49,1.35s-0.49,1.14 -0.5,1.32c0,0.18 -0.14,0.44 -0.3,0.58c-0.16,0.14 -0.3,0.4 -0.3,0.58c0,0.18 -0.14,0.6 -0.32,0.93c-0.58,1.1 -0.86,2.27 -0.6,2.49c0.27,0.22 1.92,-0.12 1.92,-0.4c0,-0.09 0.36,-0.28 0.81,-0.41c0.44,-0.13 0.9,-0.36 1.02,-0.5c0.13,-0.15 0.38,-0.27 0.57,-0.27c0.2,0 0.58,-0.18 0.86,-0.4c0.28,-0.22 0.65,-0.4 0.81,-0.4c0.17,0 0.43,-0.11 0.57,-0.25c0.15,-0.14 1.89,-1.05 3.87,-2.02s3.73,-1.84 3.9,-1.94c0.16,-0.1 0.52,-0.27 0.8,-0.38c0.27,-0.11 0.63,-0.29 0.8,-0.4c0.16,-0.11 0.52,-0.29 0.8,-0.41c1.06,-0.44 2.31,-1.02 2.6,-1.2c0.16,-0.1 0.43,-0.24 0.6,-0.3c0.16,-0.06 0.66,-0.28 1.1,-0.49c0.44,-0.2 1.61,-0.74 2.6,-1.19c0.99,-0.45 2.13,-0.99 2.54,-1.21c0.4,-0.21 0.87,-0.39 1.02,-0.39c0.16,0 0.4,-0.13 0.53,-0.29c0.14,-0.16 0.55,-0.35 0.92,-0.42s0.77,-0.24 0.9,-0.39c0.12,-0.14 0.48,-0.32 0.8,-0.39c0.32,-0.07 0.68,-0.25 0.81,-0.4c0.13,-0.15 0.54,-0.34 0.92,-0.41c0.38,-0.07 0.68,-0.2 0.68,-0.29c0,-0.09 0.35,-0.26 0.78,-0.38c0.43,-0.11 0.89,-0.34 1.03,-0.5c0.14,-0.16 0.38,-0.3 0.54,-0.3c0.16,0 0.62,-0.17 1.02,-0.38c1.47,-0.76 2.95,-1.42 3.2,-1.42c0.14,0 0.25,-0.08 0.25,-0.19s0.34,-0.29 0.75,-0.4c0.41,-0.11 0.93,-0.34 1.14,-0.5c0.21,-0.16 0.54,-0.29 0.72,-0.29c0.18,0 0.44,-0.12 0.57,-0.28c0.13,-0.15 0.47,-0.34 0.77,-0.41c0.69,-0.16 2.19,-1.79 2.35,-2.55c0.07,-0.32 0.26,-0.63 0.41,-0.69c0.16,-0.06 0.28,-0.26 0.28,-0.46c0,-0.19 0.18,-0.58 0.4,-0.86c0.22,-0.28 0.4,-0.64 0.4,-0.8c0,-0.16 0.18,-0.52 0.4,-0.8c0.22,-0.28 0.4,-0.64 0.4,-0.8c0,-0.16 0.18,-0.52 0.4,-0.8c0.22,-0.28 0.4,-0.64 0.4,-0.8c0,-0.16 0.18,-0.52 0.4,-0.8c0.22,-0.28 0.4,-0.64 0.4,-0.81c0,-0.16 0.13,-0.43 0.29,-0.59c1.04,-1.04 0.08,-1.82 -1.29,-1.04" fill="#20ce99"/>
  </g>
 </g>
</svg>