<?xml version="1.0" encoding="UTF-8" standalone="no"?>
<svg width="2.5e3" xmlns="http://www.w3.org/2000/svg" viewBox="147.553 39.286 514.231 514.631" height="2.5e3">
<path d="m148 423v0.023c0.308 11.4 0.403 22.9 2.33 34.3 2.04 12 4.96 23.7 10.5 34.6 7.53 14.8 17.9 27.2 30.9 37.4 9.37 7.31 19.6 13.1 30.9 16.8 16.5 5.33 33.6 7.37 50.9 7.47 10.8 0.068 21.6 0.338 32.4 0.293 78.4-0.33 157 0.566 235-0.484 10.4-0.141 20.6-1.41 30.8-3.28 19.6-3.58 36.9-11.9 51.7-25.1 17.2-15.4 28.9-34.2 34.1-56.9 3.44-14.8 4.3-29.9 4.44-45v-3.02c0-1.17-0.445-257-0.486-260-0.115-9.28-0.799-18.5-2.54-27.6-2.12-11.1-5.11-22-10.4-32.1-5.63-10.6-12.7-20.2-21.4-28.6-13.4-12.8-28.8-21.9-46.7-26.7-16.2-4.33-32.7-5.28-49.4-5.27-0.027-0.004-0.09-0.173-0.094-0.255h-252c-0.005 0.086-0.008 0.172-0.014 0.255-9.45 0.173-18.9 0.102-28.3 1.27-10.3 1.28-20.5 3.21-30.3 6.81-15.4 5.68-28.7 14.5-40.1 26.3-12.9 13.4-22 28.9-26.9 46.9-4.31 16.1-5.25 32.5-5.27 49" fill="#fffc00"/>
<path d="m407 473c-1.07 0-2.09-0.039-2.86-0.076-0.615 0.053-1.25 0.076-1.89 0.076-22.4 0-37.4-10.6-50.7-20-9.49-6.7-18.4-13-28.9-14.8-5.15-0.854-10.3-1.29-15.2-1.29-8.92 0-16 1.38-21.1 2.39-3.17 0.617-5.9 1.15-8.01 1.15-2.21 0-4.9-0.49-6.01-4.31-0.887-3.01-1.52-5.93-2.14-8.75-1.54-7.03-2.65-11.3-5.28-11.7-28.1-4.34-44.8-10.7-48.1-18.5a7.19 7.19 0 0 1 -0.584 -2.44 4.52 4.52 0 0 1 3.78 -4.71c22.3-3.68 42.2-15.5 59.1-35.1 13-15.2 19.5-29.7 20.1-31.3a2.85 2.85 0 0 1 0.101 -0.217c3.25-6.59 3.89-12.3 1.93-16.9-3.63-8.55-15.6-12.4-23.6-14.9-1.98-0.625-3.84-1.22-5.33-1.81-7.04-2.78-18.6-8.66-17.1-16.8 1.12-5.92 8.95-10 15.3-10 1.76 0 3.31 0.308 4.62 0.923 7.15 3.35 13.6 5.04 19.1 5.04 6.88 0 10.2-2.62 11-3.36a1.17e3 1.17e3 0 0 0 -0.679 -11.3c-1.61-25.7-3.63-57.6 4.55-76 24.5-54.8 76.3-59.1 91.7-59.1a3.91e3 3.91e3 0 0 0 7.58 -0.071c15.4 0 67.3 4.27 91.8 59.2 8.17 18.3 6.16 50.3 4.54 76l-0.076 1.23c-0.222 3.49-0.427 6.79-0.6 10 0.756 0.696 3.8 3.1 9.98 3.34 5.27-0.202 11.3-1.89 18-5.01 2.06-0.968 4.34-1.17 5.9-1.17 2.34 0 4.73 0.456 6.71 1.28l0.106 0.041c5.66 2.01 9.37 6.02 9.45 10.2 0.071 3.93-2.85 9.81-17.2 15.5-1.47 0.583-3.35 1.18-5.33 1.81-7.95 2.52-20 6.33-23.6 14.9-1.97 4.64-1.32 10.3 1.93 16.9 0.036 0.072 0.067 0.145 0.102 0.221 1 2.34 25.2 57.5 79.2 66.4a4.52 4.52 0 0 1 3.78 4.71 7.25 7.25 0 0 1 -0.598 2.46c-3.29 7.7-19.9 14.1-48.1 18.4-2.64 0.408-3.76 4.68-5.28 11.7-0.63 2.89-1.27 5.72-2.15 8.69-0.819 2.8-2.64 4.16-5.57 4.16h-0.441c-1.9 0-4.6-0.346-8.01-1.01-5.95-1.16-12.6-2.24-21.1-2.24-4.95 0-10.1 0.434-15.2 1.29-10.5 1.74-19.4 8.06-28.9 14.8-13.3 9.38-28.3 20-50.7 20" fill="#fff"/>
<path d="m408 124c14.5 0 64.2 3.88 87.7 56.5 7.72 17.3 5.74 48.7 4.16 73.9-0.248 4-0.494 7.88-0.694 11.6l-0.084 1.59 1.06 1.18c0.429 0.476 4.44 4.67 13.4 5.02l0.144 0.008 0.15-0.003c5.9-0.225 12.6-2.06 19.8-5.44 1.06-0.498 2.48-0.741 3.98-0.741 1.71 0 3.52 0.321 5.02 0.951l0.226 0.09c3.79 1.33 6.46 3.83 6.5 6.09 0.022 1.28-0.935 5.89-14.4 11.2-1.31 0.518-3.04 1.07-5.04 1.7-8.74 2.77-21.9 6.96-26.4 17.4-2.5 5.9-1.82 12.9 2.03 20.7 1.58 3.7 26.5 59.9 82.6 69.1a2.49 2.49 0 0 1 -0.229 0.9c-0.951 2.24-7 9.98-44.6 15.8-5.89 0.902-7.33 7.5-9 15.2-0.604 2.75-1.22 5.52-2.06 8.38-0.258 0.865-0.306 0.914-1.23 0.914h-0.442c-1.67 0-4.2-0.346-7.14-0.922-5.34-1.04-12.6-2.32-22-2.32-5.21 0-10.6 0.453-16 1.35-11.5 1.91-20.9 8.54-30.8 15.5-13.3 9.41-27.1 19.1-48.1 19.1-0.917 0-1.81-0.031-2.71-0.076l-0.236-0.01-0.237 0.018c-0.515 0.045-1.03 0.068-1.56 0.068-21 0-34.8-9.73-48.1-19.1-9.92-7.01-19.3-13.6-30.8-15.5-5.38-0.896-10.8-1.35-16-1.35-9.33 0-16.6 1.43-22 2.47-2.94 0.574-5.48 1.07-7.14 1.07-1.36 0-1.39-0.08-1.68-1.06-0.844-2.86-1.46-5.7-2.06-8.44-1.68-7.68-3.12-14.3-9-15.2-37.6-5.81-43.7-13.6-44.6-15.8a2.74 2.74 0 0 1 -0.231 -0.918c56.1-9.24 81-65.4 82.6-69.1 3.86-7.82 4.54-14.8 2.03-20.7-4.44-10.5-17.6-14.7-26.4-17.4-2.01-0.635-3.74-1.19-5.05-1.7-11.3-4.48-14.8-8.99-14.3-11.7 0.601-3.15 6.07-6.36 10.8-6.36 1.07 0 2.01 0.173 2.71 0.498 7.75 3.63 14.8 5.47 21 5.47 9.75 0 14.1-4.54 14.6-5.06l1.06-1.18-0.085-1.58c-0.197-3.7-0.44-7.57-0.696-11.6-1.58-25.2-3.56-56.6 4.16-73.9 23.4-52.4 72.9-56.4 87.5-56.4 0.36 0 6.72-0.065 6.72-0.065 0.26-0.002 0.549-0.006 0.852-0.006m0-9.04h-0.017c-0.333 0-0.646 0-0.944 0.004l-6.63 0.066c-8.57 0-25.7 1.21-44.1 9.34-10.5 4.64-20 10.9-28.1 18.7-9.71 9.22-17.6 20.6-23.5 33.8-8.62 19.3-6.58 51.9-4.93 78.1l0.006 0.041c0.176 2.8 0.361 5.73 0.53 8.58-1.26 0.581-3.32 1.19-6.34 1.19-4.86 0-10.6-1.56-17.2-4.62-1.92-0.896-4.12-1.35-6.54-1.35-3.89 0-8 1.15-11.6 3.24-4.48 2.63-7.37 6.35-8.16 10.5-0.518 2.73-0.493 8.11 5.49 13.6 3.29 3.01 8.13 5.78 14.4 8.25 1.64 0.645 3.58 1.26 5.64 1.91 7.14 2.27 18 5.7 20.8 12.3 1.43 3.36 0.814 7.79-1.82 13.1-0.069 0.146-0.138 0.289-0.201 0.439-0.659 1.54-6.81 15.5-19.4 30.2-7.17 8.35-15.1 15.3-23.4 20.8-10.2 6.62-21.3 10.9-32.9 12.9a9.04 9.04 0 0 0 -7.56 9.42c0.078 1.33 0.39 2.66 0.931 3.94l0.013 0.023c1.84 4.31 6.12 7.97 13.1 11.2 8.49 3.94 21.2 7.26 37.7 9.86 0.836 1.59 1.7 5.59 2.3 8.32 0.629 2.91 1.28 5.9 2.22 9.07 1.01 3.44 3.63 7.55 10.3 7.55 2.55 0 5.48-0.574 8.87-1.23 4.97-0.975 11.8-2.3 20.2-2.3 4.7 0 9.58 0.414 14.5 1.23 9.46 1.57 17.6 7.33 27 14 13.8 9.76 29.4 20.8 53.3 20.8 0.651 0 1.3-0.021 1.95-0.066 0.789 0.037 1.77 0.066 2.8 0.066 23.9 0 39.5-11 53.3-20.8l0.022-0.02c9.43-6.66 17.6-12.4 27-14 4.9-0.814 9.78-1.23 14.5-1.23 8.1 0 14.5 1.03 20.2 2.15 3.74 0.736 6.64 1.09 8.87 1.09l0.218 0.004h0.226c4.92 0 8.53-2.7 9.91-7.42 0.916-3.11 1.57-6.03 2.22-8.99 0.562-2.56 1.46-6.67 2.3-8.28 16.6-2.6 29.2-5.91 37.7-9.85 6.93-3.22 11.2-6.87 13.1-11.2 0.556-1.29 0.881-2.62 0.954-3.98a9.04 9.04 0 0 0 -7.56 -9.42c-51.6-8.5-74.8-61.5-75.8-63.8a6.45 6.45 0 0 0 -0.205 -0.438c-2.64-5.35-3.25-9.78-1.82-13.1 2.81-6.63 13.6-10.1 20.8-12.3 2.07-0.652 4.02-1.27 5.65-1.91 7.04-2.78 12.1-5.8 15.4-9.22 3.96-4.08 4.74-8 4.69-10.6-0.121-6.19-4.86-11.7-12.4-14.4-2.54-1.05-5.44-1.61-8.4-1.61-2.01 0-4.99 0.276-7.81 1.59-6.04 2.82-11.4 4.37-16.1 4.59-2.47-0.125-4.2-0.66-5.32-1.17 0.141-2.42 0.297-4.9 0.458-7.49l0.067-1.11c1.65-26.2 3.71-58.8-4.92-78.1-5.91-13.3-13.9-24.7-23.6-33.9-8.18-7.74-17.7-14-28.2-18.7-18.4-8.07-35.5-9.27-44.1-9.27" fill="#020202"/>
<path d="m148 39.4h514v514h-514z" fill="none"/>
</svg>
