<svg xmlns="http://www.w3.org/2000/svg" width="400" height="400" display="block">
  <path fill="#0099a6" fill-rule="evenodd" d="M190.928 15.82c-5.85 5.857-10.725 10.648-10.832 10.648-.108 0-.196.086-.196.192 0 .106-24.873 25.105-55.273 55.554C21.255 185.75 6.605 200.484 6.72 200.788c.058.16 11.87 12.057 26.246 26.44 14.376 14.38 26.138 26.227 26.138 26.325 0 .098.08.178.18.178.235 0 4.2 3.97 4.2 4.2 0 .1.08.18.182.18.24 0 2.006 1.77 2.006 2.01 0 .1.082.19.183.19.24 0 2.006 1.77 2.006 2.01 0 .1.09.19.19.19.25 0 1.21.96 1.21 1.21 0 .11.08.19.18.19.24 0 2.02 1.77 2.02 2 0 .11.08.19.18.19.18 0 2.02 1.73 2.02 1.89 0 .11.99 1.1 1.1 1.1.15 0 1.88 1.88 1.88 2.04 0 .08.09.15.19.15.24 0 2 1.77 2 2.01 0 .1.09.18.19.18.19 0 1.21.93 1.21 1.1 0 .14 1.01 1.1 1.16 1.1.08.01.37.32.64.69.27.38.56.69.65.69.19.01 1.94 1.85 1.94 2.05 0 .08.09.15.19.15.18 0 1.2.93 1.2 1.1 0 .11.99 1.1 1.1 1.1.11 0 1.1.99 1.1 1.1 0 .11.99 1.1 1.1 1.1.11 0 1.09.99 1.09 1.1 0 .11.99 1.1 1.09 1.1.16 0 1.1 1.02 1.1 1.19 0 .1.18.24.4.31.22.07.39.26.39.41 0 .16.09.29.19.29.25 0 1.21.96 1.21 1.21 0 .11.07.19.15.19.16 0 2.04 1.74 2.04 1.88 0 .11.98 1.11 1.09 1.11.11 0 1.09.99 1.09 1.1 0 .11.99 1.09 1.09 1.09.16 0 1.89 1.84 1.89 2.02 0 .1.13.18.3.18.17 0 .3.07.3.15 0 .23 1.77 2.04 1.99 2.04.11 0 .2.07.2.15 0 .23 1.77 2.04 1.99 2.04.11 0 .2.07.2.15 0 .22 3.18 3.43 3.4 3.43.1 0 .19.08.19.17 0 .22 2.6 2.82 2.82 2.82.09 0 .16.08.16.19 0 .25.95 1.2 1.2 1.2.11 0 .19.07.19.15 0 .16 1.74 2.04 1.88 2.04.11 0 1.11.98 1.11 1.09 0 .17 1.02 1.1 1.2 1.1.11 0 .19.09.19.21s18.53 18.75 41.17 41.41l41.18 41.2 81.61-81.64c44.88-44.9 81.61-81.71 81.61-81.8 0-.09.08-.17.17-.17.23 0 5.6-5.36 5.6-5.59 0-.1.08-.18.18-.18.24 0 5.6-5.36 5.6-5.59 0-.1.08-.18.17-.18.22 0 8.59-8.36 8.59-8.58 0-.1.08-.18.17-.18.21 0 2.82-2.6 2.82-2.82 0-.09.08-.16.19-.16.1 0 .41-.23.69-.51.28-.28.51-.59.51-.7 0-.1.07-.19.17-.19.22 0 4.2-3.99 4.2-4.21 0-.09.08-.17.18-.17.28 0 2.57-2.33 2.7-2.75.12-.36-194.69-195.65-195.16-195.65-.1 0-4.96 4.79-10.81 10.65m-34.6 115.32c.44.13 1.56.3 2.49.38.93.07 1.87.23 2.09.35.22.12 1 .28 1.74.36.74.08 1.44.27 1.57.42.13.15.56.28.95.28.4 0 1.08.18 1.52.39.44.21.98.39 1.2.39.22.01.58.13.8.28.22.15.72.33 1.12.41.4.07.84.26.97.42.13.167.42.3.64.3.22 0 .63.13.92.3.29.16.76.39 1.03.5.28.11.63.28.8.38.16.1.52.28.79.41.92.42 1.69.87 1.95 1.14.15.14.39.26.54.26.15 0 .35.11.44.25.09.14.41.36.71.5.3.13.55.33.55.44 0 .11.1.2.22.2.19 0 1.14.65 1.92 1.3 1.89 1.58 4.44 3.947 4.44 4.128 0 .07.35.48.77.91.67.677 1.31 1.53 2.11 2.81.11.177.31.39.45.48.13.09.25.28.25.435 0 .15.12.39.26.54.27.27.68.98 1.19 2.08.16.344.39.685.51.76.12.074.22.34.22.597 0 .25.13.57.3.7.16.14.35.57.42.97s.24.86.38 1.03c.13.16.31.63.38 1.04.07.41.26.99.42 1.3.16.3.29.85.29 1.21s.14.92.3 1.24c.96 1.85.96 14.59.01 16.42-.17.32-.3.94-.31 1.38 0 .44-.12.985-.28 1.21-.15.22-.34.76-.42 1.19-.08.43-.26.98-.41 1.22-.15.24-.273.61-.273.82 0 .21-.18.606-.4.884-.22.28-.4.69-.4.91 0 .22-.09.46-.2.53-.11.07-.337.41-.5.76-.165.35-.52.99-.785 1.43-.26.44-.58 1-.69 1.24-.11.24-.29.45-.41.45-.11 0-.2.11-.2.24 0 .23-.48.917-1.28 1.797-.17.19-.31.41-.31.47 0 .14-1.44 1.72-2.89 3.16-1.86 1.86-4.24 3.92-5.64 4.88-.39.28-.79.61-.88.75-.09.14-.27.25-.42.25-.14 0-.42.18-.61.4-.19.22-.44.4-.54.4-.11 0-.4.16-.65.35-.25.19-.62.46-.83.598-.2.14-.7.46-1.09.73-.4.27-.91.54-1.14.62-.23.07-.42.22-.42.32s-.12.187-.27.187c-.15 0-.47.18-.73.4-.25.22-.6.4-.78.4-.18 0-.476.18-.66.4-.19.22-.487.4-.66.4-.18 0-.55.18-.827.4-.28.22-.62.4-.76.4s-.28.07-.32.16c-.03.09-.6.41-1.26.72-.652.31-1.33.64-1.49.73-.54.29-3.872 1.94-4.18 2.06-.162.063-.744.38-1.292.7-.55.32-1.16.59-1.36.6-.2.003-.594.19-.873.41-.28.22-.66.4-.85.4-.19 0-.46.13-.593.3-.13.16-.35.3-.47.3s-.56.18-.97.4c-.41.22-.84.4-.96.4s-.45.18-.725.39c-.28.22-.67.394-.86.394-.2 0-.39.07-.42.15-.08.19-2.12 1.244-2.39 1.244-.11 0-.43.18-.71.4-.28.22-.67.395-.86.395-.2 0-.39.07-.42.15-.09.21-2.13 1.24-2.45 1.24-.15 0-.31.13-.37.28-.06.16-.38.34-.72.42-.34.07-.61.2-.61.29 0 .09-.52.416-1.15.73s-1.214.68-1.3.82c-.09.14-.27.25-.4.25s-.754.36-1.384.79c-.63.44-1.24.79-1.35.79-.11 0-.253.13-.32.3-.06.16-.23.3-.38.3-.26 0-4.16 2.98-4.59 3.51-.12.15-.262.275-.32.275-.13 0-3.34 3.19-3.34 3.32 0 .11-.823 1.17-1.293 1.668-.17.17-.3.37-.3.45 0 .07-.32.58-.7 1.12-.38.55-.69 1.116-.69 1.26 0 .15-.18.48-.4.73-.22.25-.4.617-.4.8 0 .19-.13.45-.28.58-.15.13-.34.587-.41 1.01-.07.426-.26.88-.41 1.01-.16.13-.29.596-.29 1.056 0 .457-.18 1.18-.39 1.62-.31.64-.39 1.24-.39 3.04l-.01 2.24h35.63c24.183 0 35.76.07 36.02.21.43.23.61 18.43.19 19.1-.17.26-5.67.31-47.27.35l-47.08.05-.49-.49-.49-.49-.05-4.93c-.07-6.91.03-11.5.285-12.9.12-.66.28-2.045.35-3.085.07-1.04.24-2.09.38-2.33.14-.24.3-1 .37-1.69.06-.69.23-1.436.36-1.655.13-.22.3-.84.377-1.38.07-.54.268-1.19.43-1.433.17-.25.3-.68.3-.96 0-.28.18-.84.4-1.25.22-.41.4-.88.4-1.05 0-.17.128-.48.28-.7.15-.21.337-.67.41-1.02.08-.35.27-.74.426-.87.16-.13.29-.44.29-.68 0-.25.12-.56.28-.69.158-.13.34-.5.41-.82.07-.32.238-.65.36-.73.13-.09.508-.67.83-1.3.33-.63.67-1.14.75-1.14.08 0 .15-.12.15-.26 0-.15.2-.54.45-.88.246-.34.58-.82.746-1.07.16-.24.5-.69.74-.99.246-.3.45-.6.45-.67 0-.06.15-.28.346-.48.19-.19.66-.74 1.04-1.21 2.43-2.99 6.28-6.784 6.89-6.784.15 0 .28-.14.28-.3 0-.17.08-.3.19-.3s.336-.15.52-.33c.19-.19.84-.72 1.46-1.19s1.27-.996 1.44-1.16c.18-.17.42-.31.54-.31.12 0 .29-.11.38-.25.2-.31 1.38-1.14 1.61-1.14.1 0 .34-.18.54-.4.2-.22.47-.4.6-.4s.4-.18.6-.4c.2-.22.43-.4.53-.4.09 0 .61-.31 1.16-.696.54-.38 1.07-.7 1.17-.7.09 0 .28-.13.41-.28.13-.16.5-.35.82-.42.32-.07.58-.21.58-.31s.29-.32.64-.49c1.146-.54 3.2-1.68 3.41-1.89.11-.11.34-.2.514-.2s.47-.18.658-.4c.19-.22.51-.4.716-.4.21 0 .49-.13.62-.29.13-.15.498-.34.81-.41.31-.07.677-.25.807-.41.13-.15.37-.28.53-.28.16 0 .52-.18.8-.4.28-.22.66-.4.85-.4.19 0 .46-.13.59-.29.13-.16.5-.35.82-.42.32-.07.58-.21.58-.31s.24-.24.545-.31c.3-.076.76-.3 1.02-.5.26-.206.63-.37.82-.37.19 0 .45-.127.574-.28.13-.155.463-.34.75-.41.28-.07.64-.26.8-.417.16-.16.47-.29.69-.29.22 0 .63-.18.91-.4.28-.22.66-.4.85-.4.19 0 .46-.14.594-.3.133-.17.36-.3.49-.3s.45-.18.7-.4c.25-.22.59-.4.75-.4.16 0 .51-.18.79-.4.28-.22.67-.4.87-.4.2 0 .42-.1.5-.22.07-.12.41-.35.752-.51.35-.153.89-.454 1.22-.67.33-.21.87-.522 1.2-.694 1.345-.7 1.8-.98 2.05-1.23.15-.14.35-.26.45-.26.217 0 2.06-1.26 2.688-1.82.23-.21.5-.37.61-.37.11 0 .344-.16.53-.35.41-.43.74-.71 2.13-1.85 1.273-1.04 2-1.75 2.002-1.94 0-.08.36-.53.8-1 .434-.47.79-.94.79-1.05 0-.11.137-.25.3-.31.165-.06.3-.223.3-.36 0-.14.18-.48.4-.76.22-.28.395-.61.395-.74s.18-.46.4-.74c.22-.28.4-.71.4-.95s.12-.55.27-.67c.15-.13.333-.77.41-1.42.073-.66.264-1.57.42-2.02.37-1.05.38-4.07.01-4.97-.15-.37-.33-1.15-.41-1.74-.07-.596-.26-1.26-.42-1.49-.16-.23-.29-.566-.29-.755 0-1.37-5.14-7.724-6.25-7.724-.14 0-.41-.18-.61-.4-.2-.22-.53-.4-.735-.4-.207 0-.427-.137-.49-.3-.064-.166-.22-.3-.35-.3-.13 0-.587-.18-1.016-.4-.43-.22-.87-.397-.99-.397-.11 0-.54-.18-.95-.4-.4-.22-.94-.4-1.19-.4s-.7-.14-1.02-.3c-.31-.168-1.07-.36-1.69-.43-.62-.07-1.39-.27-1.72-.44-.9-.47-13.64-.48-14.52-.01-.33.17-1.155.38-1.836.45-.68.08-1.49.27-1.79.42-.306.16-.84.29-1.2.29s-.98.18-1.39.4c-.41.22-.93.39-1.15.39-.23 0-.76.18-1.19.4-.43.22-.93.4-1.11.4-.187 0-.45.14-.58.3-.14.17-.47.3-.74.3s-.72.18-1 .4c-.28.22-.66.4-.85.4-.19 0-.46.13-.6.3-.13.17-.4.3-.59.3-.19 0-.55.18-.8.4-.255.22-.62.4-.82.4-.19 0-.41.1-.49.22-.07.12-.44.35-.81.5-.366.16-.67.37-.67.48 0 .11-.12.2-.27.2-.14 0-.47.18-.72.4-.25.22-.53.4-.62.4-.24 0-2.63 1.65-2.82 1.94-.09.135-.28.25-.42.25-.14 0-.42.18-.61.395-.2.22-.44.39-.53.39-.09 0-.33.16-.53.35-2.117 2.03-3.967 3.39-4.48 3.29-.29-.06-3.11-2.73-7.28-6.9-7.76-7.78-7.33-7.05-5.27-8.8.63-.53 1.3-1.1 1.47-1.27.18-.16.7-.61 1.17-.99s.96-.78 1.09-.89c.13-.11.64-.46 1.13-.79.49-.33.94-.66 1-.74.13-.18 1.57-1.16 1.69-1.16.05 0 .54-.32 1.08-.7.54-.38 1.064-.7 1.16-.7.09 0 .33-.18.53-.39.2-.22.47-.4.61-.4s.38-.12.52-.26c.27-.27.44-.368 2.5-1.42.63-.33 1.36-.75 1.62-.95.26-.2.63-.36.83-.36.19 0 .4-.14.46-.3.06-.168.32-.3.57-.3.25 0 .72-.18 1.05-.4.33-.217.74-.396.92-.396.18 0 .44-.14.57-.3.14-.166.6-.356 1.01-.42.42-.07.81-.25.87-.4.054-.15.26-.28.46-.28s.69-.18 1.1-.39c.41-.22.944-.4 1.194-.4s.64-.13.86-.28c.22-.16.76-.35 1.19-.43.43-.08.96-.26 1.18-.41.22-.15.62-.27.9-.27.27-.01.86-.18 1.3-.398.435-.21 1.07-.386 1.42-.39.34 0 .87-.135 1.17-.29.3-.16 1.13-.35 1.84-.43.71-.08 1.526-.26 1.81-.41.288-.15 1.06-.27 1.717-.27.66 0 1.51-.106 1.89-.23 1.78-.58 16.62-.72 18.41-.17m185.45 32.16c.7.27.26.95-2.22 3.385-1.393 1.37-5.123 5.06-8.29 8.2l-5.75 5.71-13.62.05-13.61.05.138.45c.07.243.21.47.29.504.08.03.39.52.69 1.09.29.57.65 1.17.79 1.33.14.165.32.52.4.79.08.27.27.61.42.76.15.15.27.48.27.73s.13.57.29.705c.16.13.35.542.42.91s.25.772.4.9c.157.13.28.443.28.703 0 .26.18.81.4 1.22.218.4.398.99.398 1.3 0 .3.14.76.304 1.02.16.25.36.95.42 1.53.07.59.22 1.19.33 1.34.12.15.27.95.35 1.79.08.84.26 1.93.41 2.43.44 1.46.38 15.21-.08 16.84-.19.67-.34 1.72-.34 2.33 0 .61-.12 1.45-.28 1.86-.15.41-.34 1.234-.41 1.83-.07.59-.25 1.26-.41 1.484-.16.22-.283.77-.283 1.21 0 .44-.18 1.14-.4 1.55-.22.4-.4.95-.4 1.2s-.13.63-.29.84c-.16.21-.29.61-.3.89 0 .28-.184.84-.4 1.24-.22.4-.4.87-.4 1.04 0 .16-.18.63-.4 1.04-.22.4-.4.9-.4 1.1 0 .19-.12.4-.274.46-.15.06-.33.37-.39.7-.063.33-.25.73-.42.9-.163.16-.3.46-.3.66s-.13.47-.29.6c-.16.13-.35.5-.42.83-.07.33-.253.64-.41.7-.15.06-.28.26-.28.46s-.153.56-.35.825c-.57.79-.843 1.24-1.09 1.82-.13.3-.3.55-.39.55-.08 0-.27.29-.42.65-.15.35-.49.87-.75 1.15-.26.28-.745.91-1.07 1.396-.33.484-.71.953-.85 1.04-.13.09-.25.27-.25.4s-.15.38-.34.55c-.195.17-.71.74-1.15 1.26-.96 1.14-4.74 4.93-5.81 5.83l-1.26 1.044c-.28.23-.86.73-1.29 1.11-.44.39-.97.75-1.17.82-.2.07-.53.27-.73.45-.62.56-.9.77-1.4 1.03-.27.14-.53.32-.586.39-.06.07-.614.42-1.24.78-.63.35-1.19.73-1.26.83-.06.1-.27.19-.47.19-.19 0-.56.18-.81.4-.26.215-.59.395-.75.395-.16 0-.514.18-.79.4-.28.22-.66.4-.85.4-.19 0-.46.13-.595.3-.133.16-.37.3-.52.3-.15 0-.61.18-1.02.4-.41.22-.88.39-1.05.39-.17 0-.48.123-.7.273-.21.15-.7.34-1.084.423-.39.08-.88.27-1.09.42-.22.15-.64.27-.95.27-.3 0-.89.18-1.29.396-.41.22-1.104.4-1.54.404-.44 0-.966.13-1.17.28-.2.157-1.05.34-1.89.42-.84.077-1.76.26-2.06.41-.34.176-1.2.277-2.35.277-1 0-1.99.1-2.2.21-.64.34-6.8.47-8.94.19-1.04-.14-2.74-.31-3.78-.37s-2.07-.22-2.29-.34c-.22-.13-.98-.29-1.69-.36-.72-.08-1.48-.26-1.7-.4-.22-.14-.83-.3-1.35-.36-.52-.06-1.11-.25-1.31-.43-.19-.18-.64-.32-.99-.32-.38 0-.68-.12-.75-.3-.07-.16-.31-.3-.55-.3-.24 0-.765-.18-1.173-.39-.41-.22-.86-.4-1.01-.4-.15 0-.48-.18-.73-.4-.25-.22-.62-.4-.815-.4-.19 0-.41-.09-.48-.21-.07-.11-.41-.34-.76-.503-3.65-1.73-12.67-9.8-12.67-11.33 0-.06-.29-.54-.64-1.07-1.02-1.5-1.14-1.69-1.446-2.36-.16-.35-.37-.68-.47-.74-.1-.06-.24-.34-.31-.63-.08-.28-.26-.65-.42-.81-.16-.16-.29-.44-.29-.62s-.18-.61-.4-.93c-.22-.33-.4-.79-.4-1.02s-.14-.54-.3-.67c-.17-.14-.3-.44-.3-.67 0-.24-.15-.696-.32-1.02-.17-.33-.39-.96-.48-1.4-.1-.44-.31-1.15-.48-1.59-.17-.435-.31-1.074-.32-1.42 0-.34-.14-.88-.3-1.19-.16-.31-.3-.97-.31-1.46 0-.49-.15-1.61-.325-2.49-.46-2.32-.59-12.97-.18-14.81.16-.72.36-2.12.43-3.1.08-.99.26-2.11.4-2.49.14-.38.3-1.25.35-1.93.05-.675.24-1.43.42-1.68s.32-.82.32-1.26c0-.44.13-1.05.29-1.355.16-.31.35-.89.42-1.3s.254-.94.41-1.18c.15-.24.27-.6.27-.8 0-.2.18-.69.4-1.1.22-.41.4-.92.4-1.13 0-.21.126-.51.276-.66.15-.15.34-.58.42-.96.08-.373.26-.82.4-.98.14-.16.31-.557.39-.87.07-.31.26-.7.42-.86.16-.16.29-.45.29-.65s.133-.47.3-.6c.16-.14.295-.32.295-.41 0-.26.37-1.03.8-1.68.22-.33.53-.89.7-1.25.16-.357.38-.65.48-.65.1 0 .24-.27.31-.61.08-.33.26-.66.42-.72.15-.06.28-.18.28-.28 0-.193 1.23-2.024 1.79-2.66.19-.22.59-.76.88-1.195.91-1.37 6.757-7.66 7.11-7.66.06 0 .567-.44 1.13-.97.57-.54 1.41-1.23 1.87-1.546.468-.31.92-.68 1-.82.09-.13.26-.25.37-.25.12 0 .497-.22.84-.5l.84-.67c.118-.09.41-.23.647-.31.24-.07.43-.21.43-.31 0-.09.2-.23.44-.3.25-.07.61-.27.8-.44.41-.36.73-.54 2.28-1.31.63-.315 1.288-.65 1.45-.75.327-.19.92-.47 1.39-.65.17-.067.438-.19.6-.28 1.248-.697 2.038-1.03 2.41-1.03.25 0 .6-.147.798-.32.19-.17.71-.36 1.153-.42.44-.06.91-.23 1.03-.38s.44-.277.69-.277c.26 0 .92-.17 1.48-.39.55-.22 1.28-.4 1.61-.4.33 0 .84-.13 1.15-.28.3-.16 1.12-.348 1.83-.42.7-.08 1.66-.26 2.13-.41.47-.16 1.72-.29 2.78-.3 1.066-.02 2.2-.1 2.53-.18.7-.18 83.5-.26 83.97-.08m-84.35 18.12c-.44.05-.98.17-1.2.273-.22.11-.89.28-1.494.38-.6.11-1.45.33-1.89.5-.44.167-1 .31-1.24.31-.24.01-.44.09-.44.19 0 .11-.2.25-.45.32-.69.21-2.19.94-2.71 1.33-.26.2-.64.36-.85.36-.2 0-.37.07-.37.16 0 .17-1.52 1.23-1.76 1.23-.07 0-.41.26-.747.58-.34.32-1.14 1.01-1.79 1.536-1.53 1.24-2.57 2.286-3.757 3.76-.53.66-1.08 1.27-1.23 1.353-.15.09-.27.28-.27.43 0 .15-.135.32-.3.386-.16.06-.3.24-.3.39 0 .15-.18.43-.4.63-.22.2-.4.48-.4.62s-.12.33-.26.42c-.15.09-.56.67-.91 1.3-.36.63-.73 1.19-.83 1.25-.11.065-.19.29-.19.51 0 .22-.13.445-.29.505-.16.06-.343.36-.41.67-.07.31-.254.67-.41.8-.16.13-.29.38-.29.56 0 .18-.18.59-.4.92-.21.33-.39.79-.39 1.02 0 .234-.13.53-.29.66-.15.13-.34.58-.41 1.01-.073.423-.26.88-.414 1.01-.15.125-.28.47-.29.754 0 .283-.18.88-.39 1.32-.21.433-.39 1.11-.39 1.493-.004.387-.13.88-.28 1.096-.15.214-.36 1.02-.47 1.78-.11.77-.29 1.67-.41 1.99-.78 2.26-1.12 10.33-.57 13.73.18 1.1.323 2.38.33 2.85.003.48.11 1.06.24 1.3s.34.97.48 1.63c.25 1.24.54 2.164 1 3.184.15.33.36.82.47 1.09.11.27.286.63.38.79.1.16.28.52.41.79.54 1.19 1.64 2.78 2.67 3.87.506.54.92 1.05.92 1.14 0 .09.09.17.19.17.11 0 .44.23.75.52.67.61 2.2 1.67 2.437 1.67.09 0 .27.13.4.29.14.16.5.35.81.41.317.07.68.26.81.42.13.16.48.288.77.288.29 0 .73.14.97.315.25.17 1.05.41 1.79.52.74.11 1.46.3 1.606.42.48.39 8.96.28 9.73-.12.35-.19.93-.34 1.29-.34.36-.01 1.01-.18 1.45-.396.44-.21.99-.39 1.22-.39.23-.006.53-.14.67-.3.13-.16.54-.35.904-.42s.71-.25.77-.4c.06-.16.28-.28.487-.28.206 0 .6-.18.88-.4.28-.22.56-.4.62-.4.857 0 8.88-6.98 8.88-7.73 0-.113.12-.28.26-.37.148-.09.48-.47.75-.85s.82-1.13 1.23-1.66c.41-.53.747-1.09.747-1.24 0-.15.12-.34.26-.43.14-.09.37-.38.5-.654.14-.276.43-.77.64-1.1.43-.653.8-1.424.8-1.68 0-.09.14-.21.3-.275.17-.06.3-.33.3-.6 0-.27.136-.63.3-.79.17-.17.36-.6.43-.96.07-.365.24-.795.37-.96.14-.163.31-.583.38-.93.07-.35.26-.74.42-.87.157-.13.287-.473.287-.76 0-.29.13-.77.29-1.08.15-.31.38-1.06.49-1.68.11-.62.28-1.18.38-1.24.09-.06.22-.613.29-1.23.07-.61.26-1.44.42-1.83.16-.4.3-1.28.3-1.97.002-.69.133-1.83.29-2.54.41-1.86.41-9.45 0-11.01-.166-.64-.3-1.71-.3-2.39 0-.75-.11-1.4-.28-1.64-.154-.22-.345-.85-.425-1.39-.08-.55-.27-1.17-.42-1.38-.15-.22-.27-.58-.27-.8 0-.23-.18-.74-.4-1.15-.22-.41-.4-.87-.4-1.03 0-.16-.11-.4-.25-.55-.134-.144-.36-.49-.5-.76-.713-1.394-1.74-2.86-2.71-3.87-.5-.52-.91-1.03-.91-1.13 0-.1-.13-.173-.28-.173-.15 0-.32-.12-.38-.26-.11-.273-2.43-1.934-2.71-1.934-.09 0-.38-.16-.64-.37-.26-.2-.72-.42-1.02-.5-.3-.07-.55-.22-.55-.33 0-.1-.2-.19-.45-.19s-.79-.18-1.19-.4c-.41-.22-1.11-.4-1.55-.4-.44 0-1.14-.14-1.54-.31-.75-.31-5.91-.553-7.71-.36"/>
</svg>
